# Blender v2.80 (sub 75) OBJ File: 'House.blend'
# www.blender.org
mtllib Cube_House_1.mtl
o Cube
v 7.000000 10.000000 -7.000000
v 7.000000 0.000000 -7.000000
v 7.000000 10.000000 7.000000
v 7.000000 0.000000 7.000000
v -7.000000 10.000000 -7.000000
v -7.000000 0.000000 -7.000000
v -7.000000 10.000000 7.000000
v -7.000000 0.000000 7.000000
v 7.000000 4.248877 -1.196542
v 7.000000 0.965565 -1.196542
v 7.000000 4.248877 1.196542
v 7.000000 0.965565 1.196542
v 7.180729 4.248877 -1.196542
v 7.180729 0.965565 -1.196542
v 7.180729 4.248877 1.196542
v 7.180729 0.965565 1.196542
v 7.253816 2.669560 4.840416
v 7.253816 4.482770 4.840416
v 7.253816 2.669560 3.338330
v 7.253816 4.482770 3.338330
v 6.980669 2.280655 5.384883
v 6.980669 4.871675 5.384883
v 6.980669 2.280655 2.793862
v 6.980669 4.871675 2.793862
v 7.253816 2.280655 2.793862
v 7.253816 2.280655 5.384883
v 7.253816 4.871675 5.384883
v 7.253816 4.871675 2.793862
v 7.151377 2.669560 3.338330
v 7.151377 2.669560 4.840416
v 7.151377 4.482770 4.840416
v 7.151377 4.482770 3.338330
v 7.253816 2.669560 -2.869439
v 7.253816 4.482770 -2.869439
v 7.253816 2.669560 -4.371525
v 7.253816 4.482770 -4.371525
v 6.980669 2.280655 -2.324971
v 6.980669 4.871675 -2.324971
v 6.980669 2.280655 -4.915992
v 6.980669 4.871675 -4.915992
v 7.253816 2.280655 -4.915992
v 7.253816 2.280655 -2.324971
v 7.253816 4.871675 -2.324971
v 7.253816 4.871675 -4.915992
v 7.151377 2.669560 -4.371525
v 7.151377 2.669560 -2.869439
v 7.151377 4.482770 -2.869439
v 7.151377 4.482770 -4.371525
v 7.000000 0.839758 -7.000000
v -7.000000 0.839758 7.000000
v 7.000000 0.839758 7.000000
v -7.000000 0.839758 -7.000000
v 7.526291 15.699160 -0.000000
v 7.526291 9.909611 -0.000000
v 7.526291 9.909611 7.526291
v -7.526291 15.699160 0.000000
v -7.526291 9.909611 0.000000
v -7.526291 9.919588 7.526291
v -7.526291 9.909611 7.526291
v -7.526291 9.909611 -7.526290
v 7.526290 9.919589 -7.526291
v 7.526290 9.909611 -7.526291
vt 0.539309 0.147345
vt 0.539309 0.010975
vt 0.688181 0.010975
vt 0.688181 0.147345
vt 0.837053 0.010975
vt 0.837053 0.147345
vt 0.855265 0.355804
vt 0.781511 0.191425
vt 0.961368 0.210217
vt 0.964209 0.326786
vt 0.985925 0.010975
vt 0.985925 0.147345
vt 0.779967 0.587782
vt 0.779967 0.537872
vt 0.782362 0.539859
vt 0.781952 0.584880
vt 0.808628 0.537731
vt 0.808218 0.582752
vt 0.810613 0.534829
vt 0.810613 0.584739
vt 0.390437 0.147345
vt 0.390437 0.010975
vt 0.887144 0.573285
vt 0.885381 0.573203
vt 0.899498 0.583120
vt 0.898873 0.581952
vt 0.899637 0.542102
vt 0.902226 0.521460
vt 0.908640 0.596590
vt 0.903701 0.574084
vt 0.885883 0.547377
vt 0.888073 0.577447
vt 0.889969 0.551948
vt 0.891197 0.571745
vt 0.901069 0.579245
vt 0.888438 0.547459
vt 0.906536 0.540979
vt 0.783108 0.689323
vt 0.767135 0.689323
vt 0.767135 0.716317
vt 0.783108 0.716317
vt 0.908640 0.539552
vt 0.887871 0.546768
vt 0.951295 0.541017
vt 0.953342 0.539780
vt 0.933757 0.544600
vt 0.934331 0.545372
vt 0.936343 0.572278
vt 0.932907 0.577762
vt 0.930126 0.547779
vt 0.933799 0.554760
vt 0.953342 0.597615
vt 0.947236 0.521460
vt 0.947308 0.577280
vt 0.944753 0.542439
vt 0.935347 0.549540
vt 0.945553 0.580509
vt 0.931823 0.573711
vt 0.791364 0.740049
vt 0.791364 0.724077
vt 0.764370 0.724077
vt 0.764370 0.740049
vt 0.929906 0.573857
vt 0.946207 0.581613
vt 0.784017 0.170845
vt 0.975687 0.197331
vt 0.846609 0.369294
vt 0.767135 0.198099
vt 0.975687 0.337238
vt 0.022083 0.547482
vt 0.122404 0.547832
vt 0.122148 0.621481
vt 0.021826 0.621200
vt 0.122127 0.623231
vt 0.223712 0.514789
vt 0.222464 0.622826
vt 0.223275 0.823499
vt 0.122939 0.823905
vt 0.223712 0.931556
vt 0.025791 0.083974
vt 0.126112 0.084323
vt 0.125855 0.157972
vt 0.025534 0.157691
vt 0.125835 0.159723
vt 0.227420 0.051280
vt 0.226172 0.159317
vt 0.226983 0.359991
vt 0.126646 0.360396
vt 0.227420 0.468047
vn 0.0000 0.0000 1.0000
vn -1.0000 0.0000 0.0000
vn 0.0000 -1.0000 0.0000
vn 0.0000 0.0000 -1.0000
vn 1.0000 0.0000 0.0000
vn 0.0000 1.0000 0.0000
vn 0.0003 0.7929 0.6094
vn -0.0003 0.7929 -0.6094
usemtl Material
s off
f 51/1/1 3/2/1 7/3/1 50/4/1
f 50/4/2 7/3/2 5/5/2 52/6/2
f 6/7/3 2/8/3 4/9/3 8/10/3
f 52/6/4 5/5/4 1/11/4 49/12/4
f 11/13/1 12/14/1 16/15/1 15/16/1
f 14/17/5 13/18/5 15/16/5 16/15/5
f 10/19/4 9/20/4 13/18/4 14/17/4
f 12/14/3 10/19/3 14/17/3 16/15/3
f 9/20/6 11/13/6 15/16/6 13/18/6
f 49/21/5 1/22/5 3/2/5 51/1/5
f 18/23/3 31/24/3 32/25/3 20/26/3
f 25/27/4 23/28/4 24/29/4 28/30/4
f 23/28/2 21/31/2 22/32/2 24/29/2
f 21/31/1 26/33/1 27/34/1 22/32/1
f 25/27/3 26/33/3 21/31/3 23/28/3
f 24/29/6 22/32/6 27/34/6 28/35/6
f 17/36/5 26/33/5 25/27/5 19/37/5
f 18/23/5 27/34/5 26/33/5 17/36/5
f 20/26/5 28/35/5 27/34/5 18/23/5
f 19/37/5 25/27/5 28/30/5 20/26/5
f 30/38/5 29/39/5 32/40/5 31/41/5
f 19/37/6 29/42/6 30/43/6 17/36/6
f 20/26/1 32/25/1 29/42/1 19/37/1
f 17/36/4 30/43/4 31/24/4 18/23/4
f 34/44/3 47/45/3 48/46/3 36/47/3
f 41/48/4 39/49/4 40/50/4 44/51/4
f 39/49/2 37/52/2 38/53/2 40/50/2
f 37/52/1 42/54/1 43/55/1 38/53/1
f 41/48/3 42/54/3 37/52/3 39/49/3
f 40/50/6 38/53/6 43/55/6 44/56/6
f 33/57/5 42/54/5 41/48/5 35/58/5
f 34/44/5 43/55/5 42/54/5 33/57/5
f 36/47/5 44/56/5 43/55/5 34/44/5
f 35/58/5 41/48/5 44/51/5 36/47/5
f 46/59/5 45/60/5 48/61/5 47/62/5
f 35/58/6 45/63/6 46/64/6 33/57/6
f 36/47/1 48/46/1 45/63/1 35/58/1
f 33/57/4 46/64/4 47/45/4 34/44/4
f 2/8/5 49/65/5 51/66/5 4/9/5
f 6/7/4 52/67/4 49/68/4 2/8/4
f 8/10/2 50/69/2 52/67/2 6/7/2
f 4/9/1 51/66/1 50/69/1 8/10/1
f 53/70/7 56/71/7 58/72/7 55/73/7
f 55/73/1 58/72/1 59/74/1
f 59/74/2 58/72/2 56/75/2 57/76/2
f 57/76/3 54/77/3 55/78/3 59/74/3
f 54/77/5 53/79/5 55/78/5
f 56/80/8 53/81/8 61/82/8 60/83/8
f 60/83/4 61/82/4 62/84/4
f 62/84/5 61/82/5 53/85/5 54/86/5
f 54/86/3 57/87/3 60/88/3 62/84/3
f 57/87/2 56/89/2 60/88/2
