# Blender v2.80 (sub 75) OBJ File: ''
# www.blender.org
mtllib Female_Pink_1.mtl
o Female_Circle.004
v -0.328769 -0.642435 -0.328771
v -0.325935 -0.642435 -0.325786
v 0.003506 -0.642435 0.003579
v -0.328769 -0.642435 0.335853
v -0.466417 -0.642435 0.003541
v 0.113426 0.408961 -0.106342
v 0.003543 0.408961 -0.151857
v 0.003543 0.408961 -0.151857
v 0.113426 0.408961 -0.106342
v 0.003543 -0.642435 0.473501
v 0.335855 -0.642435 0.335853
v 0.113426 0.408961 0.113424
v 0.003543 0.408961 0.158939
v -0.106339 0.408961 0.113424
v -0.151854 0.408961 0.003541
v 0.003543 -0.642435 -0.466419
v -0.106339 0.408961 -0.106342
v 0.335855 -0.642435 -0.328771
v 0.473503 -0.642435 0.003541
v 0.158941 0.408961 0.003541
v 0.091551 0.408961 0.003541
v 0.065774 0.408961 -0.058690
v 0.065774 0.460650 -0.058690
v 0.091551 0.460650 0.003541
v 0.158941 0.408961 0.003541
v 0.113426 0.408961 0.113424
v 0.003543 0.408961 0.158939
v -0.106339 0.408961 0.113424
v -0.151854 0.408961 0.003541
v -0.106339 0.408961 -0.106342
v -0.058688 0.408961 -0.058690
v 0.003543 0.408961 -0.084467
v -0.084464 0.408961 0.003541
v -0.058688 0.408961 0.065772
v 0.003543 0.408961 0.091549
v 0.065774 0.408961 0.065772
v -0.058688 0.460650 -0.058690
v -0.084464 0.460650 0.003541
v -0.058688 0.460650 0.065772
v 0.003544 0.460650 0.003540
v 0.065774 0.460650 0.065772
v 0.003543 0.460650 0.091549
v 0.003543 0.460650 -0.084467
v 0.194024 0.525256 0.194022
v 0.003544 0.525256 0.272922
v 0.003544 0.459683 0.138231
v 0.098784 0.459683 0.098781
v 0.003544 0.665288 0.353736
v 0.251169 0.665288 0.251166
v 0.251169 0.819430 0.251166
v 0.003544 0.819430 0.353736
v 0.272924 0.525256 0.003541
v 0.353738 0.665288 0.003541
v -0.186937 0.525256 0.194022
v -0.244082 0.665288 0.251166
v -0.186937 0.525256 -0.186940
v -0.265837 0.525256 0.003541
v -0.346651 0.665288 0.003541
v -0.244082 0.665289 -0.244084
v 0.194024 0.525256 -0.186940
v 0.251169 0.665289 -0.244084
v 0.003544 0.525256 -0.265840
v 0.003544 0.665289 -0.346654
v 0.353738 0.819430 0.003541
v 0.251169 0.819430 -0.244084
v 0.214025 0.945685 -0.206940
v 0.301209 0.945685 0.003541
v -0.244082 0.819430 0.251166
v -0.346651 0.819430 0.003541
v -0.244082 0.819430 -0.244084
v 0.003544 0.819430 -0.346654
v 0.108784 1.043282 -0.101700
v 0.152376 1.043282 0.003541
v 0.214025 0.945685 0.214022
v 0.003544 0.945685 0.301207
v -0.206938 0.945685 0.214022
v -0.294122 0.945685 0.003541
v -0.206938 0.945685 -0.206940
v 0.003544 0.945685 -0.294125
v 0.108784 1.043282 0.108782
v 0.003544 1.043282 0.152374
v -0.101697 1.043282 0.108782
v -0.145289 1.043282 0.003541
v -0.101697 1.043282 -0.101700
v 0.003544 1.043282 -0.145292
v -0.091697 0.459683 -0.091699
v 0.003544 0.459683 0.003541
v -0.091697 0.459683 0.098781
v -0.131147 0.459683 0.003541
v 0.003544 0.459683 -0.131149
v 0.098784 0.459683 -0.091699
v 0.138234 0.459683 0.003541
v 0.003544 1.043282 0.003541
vt 0.266392 0.703939
vt 0.398712 0.911457
vt 0.165615 0.933743
vt 0.578928 0.617052
vt 0.613674 0.616530
vt 0.579109 0.617590
vt 0.406775 0.680685
vt 0.564956 0.670874
vt 0.414230 0.754856
vt 0.614956 0.684149
vt 0.533778 0.965217
vt 0.584247 0.293119
vt 0.614018 0.615808
vt 0.438482 0.335565
vt 0.315237 0.442716
vt 0.389157 0.606578
vt 0.555211 0.652981
vt 0.584121 0.684661
vt 0.640224 0.650221
vt 0.640224 0.976964
vt 0.557964 0.632680
vt 0.960644 0.832181
vt 0.977487 0.854130
vt 0.960644 0.854130
vt 0.558351 0.632912
vt 0.555593 0.652895
vt 0.565246 0.670590
vt 0.584229 0.684167
vt 0.614557 0.683555
vt 0.639227 0.650289
vt 0.871601 0.852240
vt 0.878718 0.816432
vt 0.887122 0.836720
vt 0.917474 0.816432
vt 0.909071 0.836720
vt 0.924591 0.852240
vt 0.944879 0.843837
vt 0.924591 0.874190
vt 0.944879 0.882593
vt 0.917474 0.909998
vt 0.909071 0.889710
vt 0.878718 0.909998
vt 0.887122 0.889710
vt 0.871601 0.874190
vt 0.851314 0.882593
vt 0.851314 0.843837
vt 0.924456 0.955481
vt 0.897961 0.944506
vt 0.924456 0.933532
vt 0.960644 0.876079
vt 0.977487 0.898028
vt 0.960644 0.898028
vt 0.960644 0.919977
vt 0.977487 0.941926
vt 0.960644 0.941926
vt 0.960644 0.963875
vt 0.977487 0.985824
vt 0.960644 0.985824
vt 0.960644 0.810232
vt 0.977487 0.832181
vt 0.977487 0.876079
vt 0.977487 0.919977
vt 0.977487 0.963875
vt 0.780489 0.228570
vt 0.735108 0.279492
vt 0.736970 0.238231
vt 0.813785 0.216121
vt 0.869275 0.262183
vt 0.830663 0.271527
vt 0.760342 0.185395
vt 0.794140 0.331635
vt 0.833777 0.331939
vt 0.788466 0.385311
vt 0.815290 0.457479
vt 0.771098 0.441156
vt 0.760519 0.114144
vt 0.791022 0.167387
vt 0.791454 0.279173
vt 0.828724 0.391710
vt 0.781057 0.548886
vt 0.727475 0.502259
vt 0.725937 0.143779
vt 0.702946 0.028400
vt 0.819183 0.152838
vt 0.831560 0.087715
vt 0.846105 0.140770
vt 0.865710 0.394528
vt 0.850204 0.568138
vt 0.796359 0.096205
vt 0.843619 0.202618
vt 0.870212 0.331496
vt 0.859300 0.464356
vt 0.889233 0.124174
vt 0.871356 0.187142
vt 0.919374 0.251664
vt 0.907309 0.333327
vt 0.902017 0.395913
vt 0.902209 0.463805
vt 0.916772 0.560248
vt 0.772171 0.000132
vt 0.955366 0.171095
vt 0.971279 0.399495
vt 0.979368 0.453556
vt 0.999868 0.508502
vt 0.902975 0.048164
vt 0.883947 0.089466
vt 0.910553 0.152072
vt 0.971124 0.347704
vt 0.684627 0.239883
vt 0.634980 0.284482
vt 0.617234 0.230364
vt 0.739240 0.325692
vt 0.696024 0.446293
vt 0.724739 0.412720
vt 0.647858 0.181009
vt 0.652440 0.096289
vt 0.724339 0.208361
vt 0.736843 0.370566
vt 0.697346 0.186646
vt 0.686806 0.305286
vt 0.999211 0.134231
vt 0.937816 0.104282
vt 0.999868 0.077589
vt 0.957842 0.040557
vt 0.027808 0.750393
vt 0.023385 0.751223
vt 0.080168 0.521564
vt 0.871466 0.933532
vt 0.886986 0.918012
vt 0.886986 0.971002
vt 0.871466 0.955481
vt 0.908935 0.918012
vt 0.908935 0.971002
vt 0.977487 0.810232
vt 0.835735 0.003786
vt 0.985656 0.298018
vn -0.0000 -1.0000 -0.0000
vn 0.0000 0.0000 1.0000
vn 0.3689 0.2664 0.8905
vn -0.8905 0.2664 0.3689
vn -0.3689 0.2664 -0.8905
vn 0.3689 0.2664 -0.8905
vn 0.8905 0.2664 0.3689
vn -0.3689 0.2664 0.8905
vn -0.8905 0.2664 -0.3689
vn 0.8905 0.2664 -0.3689
vn 0.9239 0.0000 -0.3827
vn 0.0000 1.0000 0.0000
vn 0.3827 -0.0000 0.9239
vn -0.9239 -0.0000 0.3827
vn -0.3827 0.0000 -0.9239
vn 0.3827 0.0000 -0.9239
vn 0.9239 -0.0000 0.3827
vn -0.3827 -0.0000 0.9239
vn -0.9239 0.0000 -0.3827
vn 0.1784 -0.8847 0.4307
vn 0.8152 -0.4705 0.3377
vn -0.3377 -0.4705 0.8152
vn -0.8152 -0.4705 -0.3377
vn 0.8152 -0.4705 -0.3377
vn 0.3377 -0.4705 0.8152
vn -0.8152 -0.4705 0.3377
vn -0.3377 -0.4705 -0.8152
vn 0.3377 -0.4705 -0.8152
vn 0.8624 0.3588 -0.3572
vn 0.5347 0.8155 -0.2215
vn 0.3572 0.3588 0.8624
vn -0.8624 0.3588 0.3572
vn -0.3572 0.3588 -0.8624
vn 0.3572 0.3588 -0.8624
vn 0.8624 0.3588 0.3572
vn -0.3572 0.3588 0.8624
vn -0.8624 0.3588 -0.3572
vn 0.2215 0.8155 0.5347
vn -0.5347 0.8155 0.2215
vn -0.2215 0.8155 -0.5347
vn 0.2215 0.8155 -0.5347
vn 0.5347 0.8155 0.2215
vn -0.2215 0.8155 0.5347
vn -0.5347 0.8155 -0.2215
vn -0.4307 -0.8847 0.1784
vn -0.1784 -0.8847 -0.4307
vn 0.1784 -0.8847 -0.4307
vn 0.4307 -0.8847 0.1784
vn -0.1784 -0.8847 0.4307
vn -0.4307 -0.8847 -0.1784
vn 0.4307 -0.8847 -0.1784
usemtl Material.002
s 1
f 3/1/1 4/2/1 5/3/1
f 6/4/2 8/5/2 9/6/2
f 11/7/3 13/8/3 10/9/3
f 4/2/4 15/10/4 5/11/4
f 1/12/5 7/13/5 16/14/5
f 16/14/6 6/4/6 18/15/6
f 19/16/7 12/17/7 11/7/7
f 10/9/8 14/18/8 4/2/8
f 5/11/9 17/19/9 1/20/9
f 18/15/10 20/21/10 19/16/10
f 22/22/11 24/23/11 21/24/11
f 12/17/2 25/25/2 26/26/2
f 14/18/2 27/27/2 28/28/2
f 17/19/2 29/29/2 30/30/2
f 20/21/2 9/6/2 25/25/2
f 13/8/2 26/26/2 27/27/2
f 15/10/2 28/28/2 29/29/2
f 7/13/2 30/30/2 8/5/2
f 32/31/12 30/32/12 31/33/12
f 31/33/12 29/34/12 33/35/12
f 34/36/12 29/34/12 28/37/12
f 35/38/12 28/37/12 27/39/12
f 35/38/12 26/40/12 36/41/12
f 36/41/12 25/42/12 21/43/12
f 22/44/12 25/42/12 9/45/12
f 32/31/12 9/45/12 8/46/12
f 38/47/12 40/48/12 37/49/12
f 36/50/13 42/51/13 35/52/13
f 34/53/14 38/54/14 33/55/14
f 31/56/15 43/57/15 32/58/15
f 32/59/16 23/60/16 22/22/16
f 21/24/17 41/61/17 36/50/17
f 35/52/18 39/62/18 34/53/18
f 33/55/19 37/63/19 31/56/19
f 44/64/20 46/65/20 47/66/20
f 49/67/13 51/68/13 48/69/13
f 52/70/21 49/67/21 44/64/21
f 54/71/22 48/69/22 55/72/22
f 57/73/23 59/74/23 56/75/23
f 52/70/24 61/76/24 53/77/24
f 44/64/25 48/69/25 45/78/25
f 57/73/26 55/72/26 58/79/26
f 56/75/27 63/80/27 62/81/27
f 60/82/28 63/83/28 61/76/28
f 64/84/29 66/85/29 67/86/29
f 55/72/14 69/87/14 58/79/14
f 59/74/15 71/88/15 63/80/15
f 63/83/16 65/89/16 61/76/16
f 53/77/17 50/90/17 49/67/17
f 48/69/18 68/91/18 55/72/18
f 58/79/19 70/92/19 59/74/19
f 61/76/11 64/84/11 53/77/11
f 66/85/30 73/93/30 67/86/30
f 51/68/31 74/94/31 75/95/31
f 69/87/32 76/96/32 77/97/32
f 71/88/33 78/98/33 79/99/33
f 71/100/34 66/85/34 65/89/34
f 64/84/35 74/94/35 50/90/35
f 51/68/36 76/96/36 68/91/36
f 69/87/37 78/98/37 70/92/37
f 74/94/38 81/101/38 75/95/38
f 76/96/39 83/102/39 77/97/39
f 79/99/40 84/103/40 85/104/40
f 66/85/41 85/105/41 72/106/41
f 74/94/42 73/93/42 80/107/42
f 75/95/43 82/108/43 76/96/43
f 78/98/44 83/102/44 84/103/44
f 87/109/1 89/110/1 86/111/1
f 57/73/45 88/112/45 54/71/45
f 56/75/46 90/113/46 86/114/46
f 60/82/47 90/115/47 62/116/47
f 52/70/48 47/66/48 92/117/48
f 54/71/49 46/65/49 45/78/49
f 57/73/50 86/114/50 89/118/50
f 52/70/51 91/119/51 60/82/51
f 87/109/1 46/65/1 88/120/1
f 87/109/1 92/117/1 47/66/1
f 87/109/1 90/115/1 91/119/1
f 82/121/12 93/122/12 83/123/12
f 72/106/12 93/122/12 73/93/12
f 93/122/12 84/124/12 83/123/12
f 93/122/12 80/107/12 73/93/12
f 3/1/1 19/16/1 11/7/1
f 3/1/1 10/9/1 4/2/1
f 2/125/1 1/126/1 16/127/1
f 40/48/12 24/128/12 23/129/12
f 40/48/12 42/130/12 41/131/12
f 40/48/12 43/132/12 37/49/12
f 5/3/1 1/126/1 2/125/1
f 2/125/1 3/1/1 5/3/1
f 6/4/2 7/13/2 8/5/2
f 11/7/3 12/17/3 13/8/3
f 4/2/4 14/18/4 15/10/4
f 1/12/5 17/19/5 7/13/5
f 16/14/6 7/13/6 6/4/6
f 19/16/7 20/21/7 12/17/7
f 10/9/8 13/8/8 14/18/8
f 5/11/9 15/10/9 17/19/9
f 18/15/10 6/4/10 20/21/10
f 22/22/11 23/60/11 24/23/11
f 12/17/2 20/21/2 25/25/2
f 14/18/2 13/8/2 27/27/2
f 17/19/2 15/10/2 29/29/2
f 20/21/2 6/4/2 9/6/2
f 13/8/2 12/17/2 26/26/2
f 15/10/2 14/18/2 28/28/2
f 7/13/2 17/19/2 30/30/2
f 32/31/12 8/46/12 30/32/12
f 31/33/12 30/32/12 29/34/12
f 34/36/12 33/35/12 29/34/12
f 35/38/12 34/36/12 28/37/12
f 35/38/12 27/39/12 26/40/12
f 36/41/12 26/40/12 25/42/12
f 22/44/12 21/43/12 25/42/12
f 32/31/12 22/44/12 9/45/12
f 38/47/12 39/133/12 40/48/12
f 36/50/13 41/61/13 42/51/13
f 34/53/14 39/62/14 38/54/14
f 31/56/15 37/63/15 43/57/15
f 32/59/16 43/134/16 23/60/16
f 21/24/17 24/23/17 41/61/17
f 35/52/18 42/51/18 39/62/18
f 33/55/19 38/54/19 37/63/19
f 44/64/20 45/78/20 46/65/20
f 49/67/13 50/90/13 51/68/13
f 52/70/21 53/77/21 49/67/21
f 54/71/22 45/78/22 48/69/22
f 57/73/23 58/79/23 59/74/23
f 52/70/24 60/82/24 61/76/24
f 44/64/25 49/67/25 48/69/25
f 57/73/26 54/71/26 55/72/26
f 56/75/27 59/74/27 63/80/27
f 60/82/28 62/116/28 63/83/28
f 64/84/29 65/89/29 66/85/29
f 55/72/14 68/91/14 69/87/14
f 59/74/15 70/92/15 71/88/15
f 63/83/16 71/100/16 65/89/16
f 53/77/17 64/84/17 50/90/17
f 48/69/18 51/68/18 68/91/18
f 58/79/19 69/87/19 70/92/19
f 61/76/11 65/89/11 64/84/11
f 66/85/30 72/106/30 73/93/30
f 51/68/31 50/90/31 74/94/31
f 69/87/32 68/91/32 76/96/32
f 71/88/33 70/92/33 78/98/33
f 71/100/34 79/135/34 66/85/34
f 64/84/35 67/86/35 74/94/35
f 51/68/36 75/95/36 76/96/36
f 69/87/37 77/97/37 78/98/37
f 74/94/38 80/107/38 81/101/38
f 76/96/39 82/108/39 83/102/39
f 79/99/40 78/98/40 84/103/40
f 66/85/41 79/135/41 85/105/41
f 74/94/42 67/86/42 73/93/42
f 75/95/43 81/136/43 82/108/43
f 78/98/44 77/97/44 83/102/44
f 87/109/1 88/120/1 89/110/1
f 57/73/45 89/118/45 88/112/45
f 56/75/46 62/81/46 90/113/46
f 60/82/47 91/119/47 90/115/47
f 52/70/48 44/64/48 47/66/48
f 54/71/49 88/112/49 46/65/49
f 57/73/50 56/75/50 86/114/50
f 52/70/51 92/117/51 91/119/51
f 87/109/1 47/66/1 46/65/1
f 87/109/1 91/119/1 92/117/1
f 87/109/1 86/111/1 90/115/1
f 82/121/12 81/101/12 93/122/12
f 72/106/12 85/105/12 93/122/12
f 93/122/12 85/105/12 84/124/12
f 93/122/12 81/101/12 80/107/12
f 3/1/1 18/15/1 19/16/1
f 3/1/1 11/7/1 10/9/1
f 16/127/1 18/15/1 3/1/1
f 3/1/1 2/125/1 16/127/1
f 40/48/12 41/131/12 24/128/12
f 40/48/12 39/133/12 42/130/12
f 40/48/12 23/129/12 43/132/12
