# Blender v2.80 (sub 75) OBJ File: ''
# www.blender.org
mtllib Male_Blue_1.mtl
o Male_Cube.001
v 0.271006 0.219769 -0.392712
v 0.271006 0.219768 0.392712
v 0.271006 -0.645950 0.392712
v 0.271006 -0.645949 -0.392712
v -0.271005 -0.645949 -0.392712
v -0.271005 0.219769 -0.392712
v -0.207910 0.452588 0.301281
v 0.207910 0.452588 0.301281
v 0.103955 0.509504 0.105448
v -0.103956 0.509504 0.105448
v -0.271005 0.219768 0.392712
v 0.207910 0.452589 -0.301281
v -0.207910 0.452589 -0.301281
v -0.271005 -0.645950 0.392712
v -0.103956 0.509504 -0.105448
v -0.103956 0.549360 0.105448
v -0.103956 0.549360 -0.105448
v 0.103955 0.509504 -0.105448
v 0.103955 0.549360 -0.105448
v 0.103955 0.549360 0.105448
v 0.190480 0.613764 0.190481
v -0.000000 0.613764 0.269381
v -0.000000 0.548191 0.134690
v 0.095241 0.548191 0.095240
v -0.000000 0.753796 0.350195
v 0.247625 0.753796 0.247625
v 0.247625 0.907938 0.247625
v -0.000000 0.907938 0.350195
v 0.269381 0.613764 -0.000000
v 0.350194 0.753797 0.000000
v -0.190481 0.613764 0.190481
v -0.247625 0.753796 0.247625
v -0.190481 0.613765 -0.190481
v -0.269380 0.613764 -0.000000
v -0.350195 0.753797 0.000000
v -0.247625 0.753797 -0.247625
v 0.190480 0.613765 -0.190481
v 0.247625 0.753797 -0.247625
v -0.000000 0.613765 -0.269381
v -0.000000 0.753797 -0.350195
v 0.350194 0.907938 0.000000
v 0.247625 0.907938 -0.247625
v 0.210482 1.034194 -0.210481
v 0.297666 1.034194 0.000000
v -0.247625 0.907938 0.247625
v -0.350195 0.907938 0.000000
v -0.247625 0.907938 -0.247625
v -0.000000 0.907938 -0.350195
v 0.105241 1.131790 -0.105241
v 0.148833 1.131790 0.000000
v 0.210482 1.034194 0.210481
v -0.000000 1.034194 0.297666
v -0.210481 1.034194 0.210481
v -0.297665 1.034194 0.000000
v -0.210481 1.034194 -0.210481
v -0.000000 1.034194 -0.297666
v 0.105241 1.131790 0.105241
v -0.000000 1.131790 0.148833
v -0.105240 1.131790 0.105241
v -0.148833 1.131790 0.000000
v -0.105240 1.131790 -0.105241
v -0.000000 1.131790 -0.148833
v -0.095240 0.548191 -0.095240
v -0.000000 0.548191 -0.000000
v -0.095240 0.548191 0.095240
v -0.134690 0.548191 -0.000000
v -0.000000 0.548191 -0.134690
v 0.095241 0.548191 -0.095240
v 0.134690 0.548191 -0.000000
v 0.000000 1.131790 0.000000
vt 0.014100 0.603354
vt 0.386597 0.336872
vt 0.525293 0.453244
vt 0.525293 0.001699
vt 0.341603 0.925490
vt 0.171933 0.868687
vt 0.287068 0.859771
vt 0.127422 0.944803
vt 0.391932 0.968027
vt 0.090801 0.999851
vt 0.000149 0.690366
vt 0.064045 0.712642
vt 0.342549 0.704521
vt 0.096890 0.662096
vt 0.391932 0.660700
vt 0.185059 0.185558
vt 0.017450 0.020872
vt 0.364215 0.148602
vt 0.274353 0.781578
vt 0.279164 0.776032
vt 0.147802 0.759897
vt 0.177142 0.860830
vt 0.147086 0.765392
vt 0.279536 0.855164
vt 0.137601 0.768596
vt 0.707347 0.376145
vt 0.663924 0.487407
vt 0.645518 0.417605
vt 0.741871 0.360451
vt 0.768356 0.471646
vt 0.749891 0.473774
vt 0.677697 0.281110
vt 0.720432 0.478275
vt 0.767164 0.566910
vt 0.739678 0.565778
vt 0.753555 0.618031
vt 0.783332 0.661455
vt 0.757988 0.669613
vt 0.708828 0.950148
vt 0.779627 0.872707
vt 0.766261 0.991378
vt 0.777583 0.613925
vt 0.756914 0.755588
vt 0.786252 0.756888
vt 0.745126 0.855944
vt 0.796856 0.993590
vt 0.827294 0.866127
vt 0.839619 0.972992
vt 0.787569 0.611814
vt 0.805350 0.756630
vt 0.800562 0.873514
vt 0.735816 0.242917
vt 0.762115 0.359211
vt 0.780158 0.564400
vt 0.796722 0.659888
vt 0.926918 0.890485
vt 0.789182 0.470288
vt 0.803837 0.608981
vt 0.815831 0.661726
vt 0.827481 0.755659
vt 0.765575 0.242854
vt 0.787616 0.366950
vt 0.797129 0.557843
vt 0.850483 0.403123
vt 0.841771 0.468258
vt 0.897770 0.589522
vt 0.890763 0.752404
vt 0.901661 0.831461
vt 0.890368 0.353607
vt 0.857802 0.553019
vt 0.896372 0.667633
vt 0.641106 0.744943
vt 0.667847 0.635402
vt 0.702007 0.690322
vt 0.666272 0.564430
vt 0.707063 0.751551
vt 0.614164 0.368724
vt 0.690692 0.812867
vt 0.558986 0.737351
vt 0.598726 0.647451
vt 0.647098 0.853397
vt 0.584815 0.827929
vt 0.911010 0.466614
vt 0.955843 0.378150
vt 0.965074 0.555768
vt 0.208501 0.355913
vt 0.068937 0.602100
vt 0.806109 0.264690
vt 0.992198 0.463467
vn 1.0000 0.0000 0.0000
vn 0.0000 0.0000 -1.0000
vn 0.0000 0.9603 0.2791
vn 0.0000 0.3655 0.9308
vn 0.9652 0.2616 0.0000
vn -0.9652 0.2616 0.0000
vn 0.0000 0.3655 -0.9308
vn 0.0000 -0.0000 1.0000
vn 0.0000 -1.0000 -0.0000
vn -1.0000 -0.0000 0.0000
vn 0.0000 0.9603 -0.2791
vn -0.4802 0.8771 0.0000
vn 0.4802 0.8771 0.0000
vn 0.0000 1.0000 0.0000
vn 0.1784 -0.8847 0.4307
vn 0.3827 -0.0000 0.9239
vn 0.8152 -0.4705 0.3377
vn -0.3377 -0.4705 0.8152
vn -0.8152 -0.4705 -0.3377
vn 0.8152 -0.4705 -0.3377
vn 0.3377 -0.4705 0.8152
vn -0.8152 -0.4705 0.3377
vn -0.3377 -0.4705 -0.8152
vn 0.3377 -0.4705 -0.8152
vn 0.8624 0.3588 -0.3572
vn -0.9239 -0.0000 0.3827
vn -0.3827 0.0000 -0.9239
vn 0.3827 0.0000 -0.9239
vn 0.9239 -0.0000 0.3827
vn -0.3827 -0.0000 0.9239
vn -0.9239 0.0000 -0.3827
vn 0.9239 0.0000 -0.3827
vn 0.5347 0.8155 -0.2215
vn 0.3572 0.3588 0.8624
vn -0.8624 0.3588 0.3572
vn -0.3572 0.3588 -0.8624
vn 0.3572 0.3588 -0.8624
vn 0.8624 0.3588 0.3572
vn -0.3572 0.3588 0.8624
vn -0.8624 0.3588 -0.3572
vn 0.2215 0.8155 0.5347
vn -0.5347 0.8155 0.2215
vn -0.2215 0.8155 -0.5347
vn 0.2215 0.8155 -0.5347
vn 0.5347 0.8155 0.2215
vn -0.2215 0.8155 0.5347
vn -0.5347 0.8155 -0.2215
vn -0.4307 -0.8847 0.1784
vn -0.1784 -0.8847 -0.4307
vn 0.1784 -0.8847 -0.4307
vn 0.4307 -0.8847 0.1784
vn -0.1784 -0.8847 0.4307
vn -0.4307 -0.8847 -0.1784
vn 0.4307 -0.8847 -0.1784
usemtl Material.001
s 1
f 2/1/1 4/2/1 1/3/1
f 4/2/2 6/4/2 1/3/2
f 7/5/3 9/6/3 10/7/3
f 8/8/4 11/9/4 2/10/4
f 8/8/5 1/11/5 12/12/5
f 13/13/6 11/9/6 7/5/6
f 12/14/7 6/15/7 13/13/7
f 14/16/8 2/1/8 11/17/8
f 4/2/9 14/16/9 5/18/9
f 10/7/10 17/19/10 15/20/10
f 13/13/11 18/21/11 12/14/11
f 7/5/12 15/20/12 13/13/12
f 12/12/13 9/6/13 8/8/13
f 17/19/14 20/22/14 19/23/14
f 9/6/8 16/24/8 10/7/8
f 15/20/2 19/23/2 18/21/2
f 18/25/1 20/22/1 9/6/1
f 21/26/15 23/27/15 24/28/15
f 26/29/16 28/30/16 25/31/16
f 29/32/17 26/29/17 21/26/17
f 22/33/18 32/34/18 31/35/18
f 34/36/19 36/37/19 33/38/19
f 29/39/20 38/40/20 30/41/20
f 21/26/21 25/31/21 22/33/21
f 34/36/22 32/34/22 35/42/22
f 39/43/23 36/37/23 40/44/23
f 39/43/24 38/40/24 37/45/24
f 41/46/25 43/47/25 44/48/25
f 32/34/26 46/49/26 35/42/26
f 36/37/27 48/50/27 40/44/27
f 40/44/28 42/51/28 38/40/28
f 30/52/29 27/53/29 26/29/29
f 25/31/30 45/54/30 32/34/30
f 35/42/31 47/55/31 36/37/31
f 38/40/32 41/46/32 30/41/32
f 43/47/33 50/56/33 44/48/33
f 27/53/34 52/57/34 28/30/34
f 45/54/35 54/58/35 46/49/35
f 48/50/36 55/59/36 56/60/36
f 42/51/37 56/60/37 43/47/37
f 41/61/38 51/62/38 27/53/38
f 28/30/39 53/63/39 45/54/39
f 47/55/40 54/58/40 55/59/40
f 52/57/41 57/64/41 58/65/41
f 53/63/42 60/66/42 54/58/42
f 55/59/43 62/67/43 56/60/43
f 56/60/44 49/68/44 43/47/44
f 51/62/45 50/69/45 57/64/45
f 53/63/46 58/65/46 59/70/46
f 55/59/47 60/66/47 61/71/47
f 64/72/9 66/73/9 63/74/9
f 34/36/48 65/75/48 31/35/48
f 33/38/49 67/76/49 63/74/49
f 37/45/50 67/76/50 39/43/50
f 29/32/51 24/28/51 69/77/51
f 31/35/52 23/27/52 22/33/52
f 34/36/53 63/74/53 66/73/53
f 29/39/54 68/78/54 37/45/54
f 64/72/9 23/79/9 65/80/9
f 64/72/9 69/81/9 24/82/9
f 64/72/9 67/76/9 68/78/9
f 59/70/14 70/83/14 60/66/14
f 49/84/14 70/83/14 50/69/14
f 70/83/14 61/85/14 60/66/14
f 70/83/14 57/64/14 50/69/14
f 5/18/10 11/17/10 6/4/10
f 2/1/1 3/86/1 4/2/1
f 4/2/2 5/18/2 6/4/2
f 7/5/3 8/8/3 9/6/3
f 8/8/4 7/5/4 11/9/4
f 8/8/5 2/10/5 1/11/5
f 13/13/6 6/15/6 11/9/6
f 12/14/7 1/87/7 6/15/7
f 14/16/8 3/86/8 2/1/8
f 4/2/9 3/86/9 14/16/9
f 10/7/10 16/24/10 17/19/10
f 13/13/11 15/20/11 18/21/11
f 7/5/12 10/7/12 15/20/12
f 12/12/13 18/25/13 9/6/13
f 17/19/14 16/24/14 20/22/14
f 9/6/8 20/22/8 16/24/8
f 15/20/2 17/19/2 19/23/2
f 18/25/1 19/23/1 20/22/1
f 21/26/15 22/33/15 23/27/15
f 26/29/16 27/53/16 28/30/16
f 29/32/17 30/52/17 26/29/17
f 22/33/18 25/31/18 32/34/18
f 34/36/19 35/42/19 36/37/19
f 29/39/20 37/45/20 38/40/20
f 21/26/21 26/29/21 25/31/21
f 34/36/22 31/35/22 32/34/22
f 39/43/23 33/38/23 36/37/23
f 39/43/24 40/44/24 38/40/24
f 41/46/25 42/51/25 43/47/25
f 32/34/26 45/54/26 46/49/26
f 36/37/27 47/55/27 48/50/27
f 40/44/28 48/50/28 42/51/28
f 30/52/29 41/61/29 27/53/29
f 25/31/30 28/30/30 45/54/30
f 35/42/31 46/49/31 47/55/31
f 38/40/32 42/51/32 41/46/32
f 43/47/33 49/68/33 50/56/33
f 27/53/34 51/62/34 52/57/34
f 45/54/35 53/63/35 54/58/35
f 48/50/36 47/55/36 55/59/36
f 42/51/37 48/50/37 56/60/37
f 41/61/38 44/88/38 51/62/38
f 28/30/39 52/57/39 53/63/39
f 47/55/40 46/49/40 54/58/40
f 52/57/41 51/62/41 57/64/41
f 53/63/42 59/70/42 60/66/42
f 55/59/43 61/71/43 62/67/43
f 56/60/44 62/67/44 49/68/44
f 51/62/45 44/88/45 50/69/45
f 53/63/46 52/57/46 58/65/46
f 55/59/47 54/58/47 60/66/47
f 64/72/9 65/80/9 66/73/9
f 34/36/48 66/73/48 65/75/48
f 33/38/49 39/43/49 67/76/49
f 37/45/50 68/78/50 67/76/50
f 29/32/51 21/26/51 24/28/51
f 31/35/52 65/75/52 23/27/52
f 34/36/53 33/38/53 63/74/53
f 29/39/54 69/81/54 68/78/54
f 64/72/9 24/82/9 23/79/9
f 64/72/9 68/78/9 69/81/9
f 64/72/9 63/74/9 67/76/9
f 59/70/14 58/65/14 70/83/14
f 49/84/14 62/89/14 70/83/14
f 70/83/14 62/89/14 61/85/14
f 70/83/14 58/65/14 57/64/14
f 5/18/10 14/16/10 11/17/10
